<svg width="107" height="73" viewBox="0 0 107 73" fill="none" xmlns="http://www.w3.org/2000/svg">
<path d="M13.1001 7.11635C7.59171 11.0513 4 17.5043 4 24.7976C4 36.7835 13.7006 46.5 25.6669 46.5C32.3838 46.5 38.3868 43.4385 42.361 38.6327C45.4669 34.8768 47.3337 30.0556 47.3337 24.7976C47.3337 19.5396 45.4669 14.7183 42.361 10.9625C41.1587 9.50864 39.7708 8.21445 38.2336 7.11635M25.6669 4.5V18.7811M103 45.8731V26.4403C103 14.6692 93.462 5.12687 81.6962 5.12687C69.9304 5.12687 60.3924 14.6692 60.3924 26.4403V45.8731" stroke="#5C8D3C" stroke-width="8" stroke-linecap="round"/>
<path d="M7.50198 60.188C7.50198 60.8194 7.78924 61.3403 8.36377 61.7507C8.95683 62.1611 9.68889 62.4531 10.56 62.6267C11.431 62.7846 12.3762 62.9898 13.3955 63.2423C14.4334 63.4791 15.3878 63.7396 16.2589 64.0237C17.13 64.3078 17.8528 64.7813 18.4273 65.4443C19.0203 66.0915 19.3169 66.9044 19.3169 67.883C19.3169 69.2405 18.6589 70.3533 17.3431 71.2214C16.0458 72.0738 14.2295 72.5 11.8943 72.5C9.55916 72.5 7.33518 72.0738 5.2224 71.2214V69.1142H5.3614C7.28885 70.0297 9.48503 70.4875 11.9499 70.4875C15.1932 70.4875 16.8149 69.572 16.8149 67.7409C16.8149 66.8412 16.0272 66.1783 14.4519 65.7521C13.7662 65.5627 13.0063 65.3812 12.1723 65.2075C11.3383 65.0339 10.4951 64.8287 9.64256 64.5919C8.80857 64.3552 8.03944 64.0789 7.33518 63.7632C6.64945 63.4318 6.08419 62.9819 5.63939 62.4136C5.21313 61.8296 5 61.143 5 60.3538C5 58.9805 5.63013 57.8282 6.89038 56.8969C8.16917 55.9656 9.88349 55.5 12.0333 55.5C14.2017 55.5 16.157 55.7841 17.8991 56.3524V58.3649H17.7045C15.9624 57.7651 14.2851 57.4652 12.6727 57.4652C11.0789 57.4652 9.81862 57.7098 8.89197 58.1992C7.96531 58.6727 7.50198 59.3357 7.50198 60.188Z" fill="#F9F8F8"/>
<path d="M40.7285 55.7368H44.6761V72.2632H42.1463V58.0097H42.0907L35.252 72.2632H32.6388L25.7723 58.0097H25.7445V72.2632H23.2147V55.7368H27.1623L33.9176 69.8719H33.9732L40.7285 55.7368Z" fill="#F9F8F8"/>
<path d="M63.853 72.2632L61.768 68.0251H52.3439L50.2589 72.2632H47.5067L55.7354 55.7368H58.3764L66.6051 72.2632H63.853ZM53.3446 65.9415V66.0599H60.7672V65.9415L57.0976 58.3886H57.042L53.3446 65.9415Z" fill="#F9F8F8"/>
<path d="M84.4322 70.227V70.7953C84.4322 71.3004 84.5897 71.7581 84.9047 72.1685V72.2632H82.2916C82.0321 71.9002 81.9024 71.474 81.9024 70.9847V70.6058C81.9024 69.1537 81.7263 68.1592 81.3742 67.6226C81.2074 67.3384 80.985 67.0385 80.707 66.7228C80.1325 66.123 79.1409 65.8231 77.7324 65.8231H71.9779V72.2632H69.4481V55.7368H77.1764C79.6969 55.7368 81.5873 56.1787 82.8476 57.0627C84.1078 57.9466 84.738 59.1068 84.738 60.5432C84.738 61.506 84.4322 62.3742 83.8206 63.1476C83.209 63.9053 82.3194 64.4578 81.1518 64.805V64.8524C83.3387 65.3417 84.4322 67.1332 84.4322 70.227ZM77.0096 63.7869C78.6035 63.7869 79.8637 63.5186 80.7904 62.9819C81.7356 62.4452 82.2082 61.6954 82.2082 60.7326C82.2082 59.7697 81.8004 59.0357 80.985 58.5306C80.1881 58.0255 78.8166 57.773 76.8706 57.773H71.9779V63.7869H77.0096Z" fill="#F9F8F8"/>
<path d="M103 55.7368V57.7493H96.3003V72.2632H93.7705V57.7493H87.0707V55.7368H103Z" fill="#F9F8F8"/>
</svg>
