<svg width="85" height="59" viewBox="0 0 85 59" fill="none" xmlns="http://www.w3.org/2000/svg">
<path d="M10.2617 5.08685C5.86612 8.22543 3 13.3725 3 19.1897C3 28.7499 10.7409 36.5 20.2897 36.5C25.6497 36.5 30.44 34.0581 33.6113 30.2249C36.0898 27.2292 37.5794 23.3836 37.5794 19.1897C37.5794 14.9959 36.0898 11.1503 33.6113 8.15459C32.6519 6.99499 31.5444 5.96271 30.3178 5.08685M20.2897 3V14.3909M82 36V20.5C82 11.1112 74.3888 3.5 65 3.5C55.6112 3.5 48 11.1112 48 20.5V36" stroke="#0FA413" stroke-width="6" stroke-linecap="round"/>
<path d="M4.06796 48.3607C4.06796 48.8807 4.30539 49.3097 4.78026 49.6476C5.27044 49.9856 5.87551 50.2261 6.59547 50.3691C7.31543 50.4991 8.09666 50.6681 8.93916 50.876C9.79698 51.071 10.5859 51.2855 11.3058 51.5195C12.0258 51.7535 12.6232 52.1435 13.0981 52.6894C13.5882 53.2224 13.8333 53.8918 13.8333 54.6978C13.8333 55.8157 13.2895 56.7321 12.2019 57.4471C11.1297 58.149 9.62848 58.5 7.69838 58.5C5.76829 58.5 3.9301 58.149 2.18382 57.4471V55.7117H2.29871C3.8918 56.4656 5.70701 56.8426 7.74434 56.8426C10.425 56.8426 11.7654 56.0887 11.7654 54.5808C11.7654 53.8398 11.1143 53.2939 9.8123 52.9429C9.24552 52.7869 8.61748 52.6374 7.92816 52.4944C7.23884 52.3514 6.54186 52.1825 5.83722 51.9875C5.1479 51.7925 4.51219 51.565 3.9301 51.305C3.36332 51.032 2.89612 50.6616 2.52848 50.1936C2.17616 49.7126 2 49.1472 2 48.4972C2 47.3663 2.52082 46.4174 3.56246 45.6504C4.61942 44.8835 6.03635 44.5 7.81327 44.5C9.6055 44.5 11.2216 44.734 12.6615 45.2019V46.8593H12.5006C11.0607 46.3654 9.67444 46.1184 8.34175 46.1184C7.02438 46.1184 5.98274 46.3199 5.21683 46.7228C4.45092 47.1128 4.06796 47.6588 4.06796 48.3607Z" fill="white"/>
<path d="M31.5307 44.695H34.7935V58.305H32.7026V46.5669H32.6566L27.0042 58.305H24.8443L19.1689 46.5669H19.1459V58.305H17.055V44.695H20.3178L25.9013 56.3357H25.9472L31.5307 44.695Z" fill="white"/>
<path d="M50.6438 58.305L48.9205 54.8148H41.1311L39.4078 58.305H37.1331L43.9344 44.695H46.1172L52.9185 58.305H50.6438ZM41.9583 53.0989V53.1964H48.0933V53.0989L45.0603 46.8788H45.0143L41.9583 53.0989Z" fill="white"/>
<path d="M67.6531 56.6281V57.0961C67.6531 57.5121 67.7833 57.889 68.0437 58.227V58.305H65.8839C65.6694 58.006 65.5622 57.6551 65.5622 57.2521V56.9401C65.5622 55.7442 65.4166 54.9253 65.1256 54.4833C64.9877 54.2493 64.8039 54.0023 64.5741 53.7423C64.0993 53.2484 63.2798 53.0014 62.1156 53.0014H57.3593V58.305H55.2683V44.695H61.656C63.7393 44.695 65.3018 45.059 66.3434 45.7869C67.385 46.5149 67.9059 47.4703 67.9059 48.6532C67.9059 49.4461 67.6531 50.1611 67.1476 50.798C66.6421 51.422 65.9068 51.877 64.9418 52.163V52.2019C66.7493 52.6049 67.6531 54.0803 67.6531 56.6281ZM61.5182 51.3245C62.8355 51.3245 63.8772 51.1035 64.6431 50.6616C65.4243 50.2196 65.8149 49.6021 65.8149 48.8092C65.8149 48.0162 65.4779 47.4118 64.8039 46.9958C64.1452 46.5799 63.0117 46.3719 61.4033 46.3719H57.3593V51.3245H61.5182Z" fill="white"/>
<path d="M83 44.695V46.3524H77.4625V58.305H75.3715V46.3524H69.834V44.695H83Z" fill="white"/>
</svg>
