<svg width="22" height="19" viewBox="0 0 22 19" fill="none" xmlns="http://www.w3.org/2000/svg">
<path d="M4.71973 16.6328C4.94038 16.6329 5.15085 16.7198 5.30469 16.8721C5.45834 17.0242 5.54293 17.2294 5.54297 17.4414C5.54297 17.6534 5.45832 17.8586 5.30469 18.0107C5.15084 18.1631 4.9404 18.2499 4.71973 18.25C4.49905 18.25 4.28867 18.163 4.13477 18.0107C3.98109 17.8586 3.89551 17.6534 3.89551 17.4414C3.89555 17.2294 3.98112 17.0242 4.13477 16.8721C4.28866 16.7199 4.49912 16.6328 4.71973 16.6328ZM14.1621 16.6328C14.3827 16.6329 14.5932 16.7197 14.7471 16.8721C14.9007 17.0242 14.9853 17.2294 14.9854 17.4414C14.9854 17.6534 14.9007 17.8586 14.7471 18.0107C14.5932 18.1631 14.3828 18.2499 14.1621 18.25C13.9413 18.25 13.7301 18.1632 13.5762 18.0107C13.4226 17.8586 13.3379 17.6534 13.3379 17.4414C13.3379 17.2294 13.4225 17.0242 13.5762 16.8721C13.7301 16.7196 13.9413 16.6328 14.1621 16.6328ZM20.1299 0.750977V0.751953C20.5144 0.769611 20.8914 0.867583 21.2334 1.03906C21.2421 1.04382 21.2472 1.0501 21.249 1.05566C21.2507 1.06113 21.25 1.0675 21.2471 1.07324C21.244 1.07918 21.2378 1.08621 21.2275 1.08984L21.1953 1.08887C20.8372 0.91482 20.4975 0.809189 20.165 0.793945C19.8961 0.781641 19.6611 0.829008 19.4551 0.911133L19.2598 1.00293C18.7383 1.28667 18.3517 1.85914 18.1445 2.5957C17.0948 6.2488 16.0369 9.89556 14.9834 13.5508V13.5518C14.982 13.5564 14.9786 13.5618 14.9727 13.5664C14.9663 13.5712 14.9571 13.5742 14.9473 13.5742H3.93262C3.92063 13.5742 3.91067 13.5697 3.9043 13.5635C3.89836 13.5576 3.89563 13.5512 3.89551 13.5459C3.89551 13.5405 3.89818 13.5334 3.9043 13.5273C3.91067 13.5211 3.92063 13.5166 3.93262 13.5166H13.375C13.8956 13.5166 14.3723 13.4075 14.7256 13.0869C15.0819 12.7636 15.1717 12.3502 15.2061 12.0869L15.2051 12.0859C15.2445 11.79 15.2221 11.4483 15.0654 11.1377C14.9338 10.8767 14.7164 10.6624 14.4297 10.542L14.3721 10.4844L14.1211 10.4521L2.35352 8.89941H2.35449C2.34583 8.89817 2.33812 8.89516 2.33301 8.89062C2.32794 8.8861 2.32531 8.88033 2.32422 8.87598V8.875L0.750977 2.6416C0.750146 2.6383 0.750292 2.63511 0.750977 2.63184C0.751687 2.62851 0.753033 2.62469 0.755859 2.62109C0.758633 2.6176 0.76236 2.61393 0.767578 2.61133L0.787109 2.60742H18.0352L18.2266 2.14453C18.4551 1.59405 18.7877 1.1893 19.2148 0.957031C19.495 0.80849 19.8114 0.737196 20.1299 0.750977Z" stroke="#F9F8F8" stroke-width="1.5"/>
</svg>
