<svg width="24" height="24" viewBox="0 0 24 24" fill="none" xmlns="http://www.w3.org/2000/svg">
<path d="M5.25 5.5H18.75C19.1111 5.5 19.4691 5.57078 19.8027 5.70898C20.1363 5.84718 20.439 6.05035 20.6943 6.30566C20.9497 6.56098 21.1528 6.86369 21.291 7.19727C21.4292 7.53091 21.5 7.88886 21.5 8.25V15.75C21.5 16.1111 21.4292 16.4691 21.291 16.8027C21.1528 17.1363 20.9497 17.439 20.6943 17.6943C20.439 17.9497 20.1363 18.1528 19.8027 18.291C19.4691 18.4292 19.1111 18.5 18.75 18.5H5.25C4.52065 18.5 3.82139 18.2101 3.30566 17.6943C2.78994 17.1786 2.5 16.4793 2.5 15.75V8.25C2.5 7.52065 2.78994 6.82139 3.30566 6.30566C3.82139 5.78994 4.52065 5.5 5.25 5.5ZM3 15.75C3 16.9921 4.00786 18 5.25 18H18.75C19.3467 18 19.9189 17.7628 20.3408 17.3408C20.7628 16.9189 21 16.3467 21 15.75V10.5H3V15.75ZM15.75 15H18.25C18.3163 15 18.3799 15.0264 18.4268 15.0732C18.4736 15.1201 18.5 15.1837 18.5 15.25C18.5 15.3163 18.4736 15.3799 18.4268 15.4268C18.3799 15.4736 18.3163 15.5 18.25 15.5H15.75C15.6837 15.5 15.6201 15.4736 15.5732 15.4268C15.5264 15.3799 15.5 15.3163 15.5 15.25C15.5 15.1837 15.5264 15.1201 15.5732 15.0732C15.6201 15.0264 15.6837 15 15.75 15ZM5.25 6C4.65326 6 4.08114 6.23722 3.65918 6.65918C3.23722 7.08114 3 7.65326 3 8.25V10H21V8.25C21 7.65326 20.7628 7.08114 20.3408 6.65918C19.9189 6.23722 19.3467 6 18.75 6H5.25Z" fill="#FFB939" stroke="#F9F8F8"/>
</svg>
