<svg width="44" height="44" viewBox="0 0 44 44" fill="none" xmlns="http://www.w3.org/2000/svg">
<path d="M13.5 30C13.358 30 13.239 29.9523 13.143 29.857C13.047 29.7617 12.9993 29.6427 13 29.5C13.0007 29.3573 13.0483 29.2383 13.143 29.143C13.2377 29.0477 13.3567 29 13.5 29H21.5V17.94C21.028 17.854 20.6113 17.64 20.25 17.298C19.8887 16.956 19.6587 16.5233 19.56 16H16.116L18.808 22.739C18.8787 22.8963 18.9157 23.058 18.919 23.224C18.9223 23.39 18.9077 23.554 18.875 23.716C18.725 24.3287 18.3573 24.7983 17.772 25.125C17.1867 25.4517 16.596 25.615 16 25.615C15.404 25.615 14.8133 25.4517 14.228 25.125C13.6427 24.7983 13.275 24.3283 13.125 23.715C13.0917 23.5537 13.077 23.39 13.081 23.224C13.085 23.058 13.122 22.896 13.192 22.738L15.885 16H14.5C14.358 16 14.239 15.9523 14.143 15.857C14.047 15.7617 13.9993 15.6427 14 15.5C14.0007 15.3573 14.0483 15.2383 14.143 15.143C14.2377 15.0477 14.3567 15 14.5 15H19.56C19.67 14.4427 19.948 13.97 20.394 13.582C20.84 13.194 21.3753 13 22 13C22.6247 13 23.16 13.194 23.606 13.582C24.052 13.97 24.33 14.4427 24.44 15H29.5C29.6427 15 29.7617 15.0477 29.857 15.143C29.9523 15.2383 30 15.3573 30 15.5C30 15.6427 29.9523 15.7617 29.857 15.857C29.7617 15.9523 29.6427 16 29.5 16H28.116L30.808 22.739C30.8787 22.8963 30.9157 23.058 30.919 23.224C30.9223 23.39 30.9077 23.554 30.875 23.716C30.725 24.3287 30.3573 24.7983 29.772 25.125C29.1867 25.4517 28.596 25.615 28 25.615C27.404 25.615 26.8133 25.4517 26.228 25.125C25.6427 24.7983 25.275 24.3283 25.125 23.715C25.0917 23.5537 25.077 23.39 25.081 23.224C25.085 23.058 25.122 22.896 25.192 22.738L27.884 16H24.441C24.3417 16.5233 24.1113 16.956 23.75 17.298C23.3887 17.64 22.972 17.8543 22.5 17.941V29H30.5C30.6427 29 30.7617 29.0477 30.857 29.143C30.9523 29.2383 31 29.3573 31 29.5C31 29.6427 30.9523 29.7617 30.857 29.857C30.7617 29.9523 30.6427 30 30.5 30H13.5ZM25.99 23.116H30.01L28 18.092L25.99 23.116ZM13.99 23.116H18.01L16 18.092L13.99 23.116ZM22 17C22.4113 17 22.7643 16.853 23.059 16.559C23.353 16.2643 23.5 15.9113 23.5 15.5C23.5 15.0887 23.353 14.7357 23.059 14.441C22.7643 14.147 22.4113 14 22 14C21.5887 14 21.2357 14.147 20.941 14.441C20.6463 14.735 20.4993 15.088 20.5 15.5C20.5007 15.912 20.6477 16.265 20.941 16.559C21.2357 16.853 21.5887 17 22 17Z" fill="#F9F8F8"/>
</svg>
