<svg width="24" height="24" viewBox="0 0 24 24" fill="none" xmlns="http://www.w3.org/2000/svg">
<path d="M2.51172 7.76172C2.51517 7.72563 2.52234 7.6901 2.52734 7.6543C2.52235 7.69 2.51523 7.72556 2.51172 7.76172ZM2.51172 7.76172C2.50408 7.84037 2.5 7.91997 2.5 8C2.5 7.92009 2.50417 7.8406 2.51172 7.76172ZM20.0469 6.56836L19.5977 6.86035L11.5 12.1133L3.40234 6.86035L2.95215 6.56836L3.44824 6.88965L11.2285 11.9199L11.5 12.0957L11.7715 11.9199L19.5518 6.88965L20.0469 6.56836ZM3.24316 6.22168C3.33429 6.13165 3.43264 6.05078 3.53516 5.97656C3.48529 6.01397 3.43667 6.05325 3.38965 6.09473L3.24316 6.22168ZM19.4639 5.97656C19.5707 6.05383 19.6732 6.13802 19.7676 6.23242C19.7689 6.23372 19.7702 6.23502 19.7715 6.23633L19.6104 6.09473C19.5631 6.05308 19.5139 6.01411 19.4639 5.97656ZM3.57324 5.94824C3.60145 5.92863 3.63024 5.91 3.65918 5.8916C3.63048 5.91039 3.60113 5.92819 3.57324 5.94824ZM19.3398 5.8916C19.3688 5.91 19.3976 5.92863 19.4258 5.94824C19.3979 5.92819 19.3686 5.91038 19.3398 5.8916ZM20.4727 7.6543C20.4777 7.69007 20.4839 7.72566 20.4873 7.76172C20.4838 7.72559 20.4776 7.68997 20.4727 7.6543Z" fill="#121212" stroke="#F9F8F8"/>
<g clip-path="url(#clip0_255_32279)">
<circle cx="18" cy="6" r="6" fill="#F9F8F8"/>
<path d="M18 0C19.5913 0 21.1174 0.632141 22.2426 1.75736C23.3679 2.88258 24 4.4087 24 6C24 7.5913 23.3679 9.11742 22.2426 10.2426C21.1174 11.3679 19.5913 12 18 12C16.4087 12 14.8826 11.3679 13.7574 10.2426C12.6321 9.11742 12 7.5913 12 6C12 4.4087 12.6321 2.88258 13.7574 1.75736C14.8826 0.632141 16.4087 0 18 0ZM17.2526 7.18371L15.9197 5.85C15.8719 5.80222 15.8152 5.76431 15.7528 5.73845C15.6903 5.71259 15.6234 5.69929 15.5559 5.69929C15.4883 5.69929 15.4214 5.71259 15.3589 5.73845C15.2965 5.76431 15.2398 5.80222 15.192 5.85C15.0955 5.9465 15.0413 6.07738 15.0413 6.21386C15.0413 6.35033 15.0955 6.48121 15.192 6.57771L16.8891 8.27486C16.9368 8.32288 16.9935 8.361 17.0559 8.38701C17.1184 8.41302 17.1853 8.42642 17.253 8.42642C17.3207 8.42642 17.3876 8.41302 17.4501 8.38701C17.5125 8.361 17.5692 8.32288 17.6169 8.27486L21.1311 4.75971C21.1796 4.71213 21.2181 4.65543 21.2445 4.59288C21.2709 4.53034 21.2846 4.46318 21.285 4.3953C21.2853 4.32741 21.2721 4.26013 21.2463 4.19734C21.2205 4.13455 21.1825 4.0775 21.1345 4.02946C21.0866 3.98143 21.0296 3.94337 20.9668 3.91748C20.904 3.89159 20.8368 3.87839 20.7689 3.87862C20.701 3.87886 20.6338 3.89253 20.5712 3.91886C20.5087 3.94518 20.4519 3.98364 20.4043 4.032L17.2526 7.18371Z" fill="#4DBF03"/>
</g>
<defs>
<clipPath id="clip0_255_32279">
<rect width="12" height="12" fill="white" transform="translate(12)"/>
</clipPath>
</defs>
</svg>
