<svg width="24" height="24" viewBox="0 0 24 24" fill="none" xmlns="http://www.w3.org/2000/svg">
    <path
        d="M5 5H18C18.7956 5 19.5587 5.31607 20.1213 5.87868C20.6839 6.44129 21 7.20435 21 8V17C21 17.7956 20.6839 18.5587 20.1213 19.1213C19.5587 19.6839 18.7956 20 18 20H5C4.20435 20 3.44129 19.6839 2.87868 19.1213C2.31607 18.5587 2 17.7956 2 17V8C2 7.20435 2.31607 6.44129 2.87868 5.87868C3.44129 5.31607 4.20435 5 5 5ZM5 6C4.5 6 4.06 6.17 3.72 6.47L11.5 11.5L19.28 6.47C18.94 6.17 18.5 6 18 6H5ZM11.5 12.71L3.13 7.28C3.05 7.5 3 7.75 3 8V17C3 17.5304 3.21071 18.0391 3.58579 18.4142C3.96086 18.7893 4.46957 19 5 19H18C18.5304 19 19.0391 18.7893 19.4142 18.4142C19.7893 18.0391 20 17.5304 20 17V8C20 7.75 19.95 7.5 19.87 7.28L11.5 12.71Z"
        fill="#F9F8F8" />
    <g clip-path="url(#clip0_176_12035)">
        <circle cx="18" cy="6" r="6" fill="#F9F8F8" />
        <path
            d="M18 0C19.5913 0 21.1174 0.632141 22.2426 1.75736C23.3679 2.88258 24 4.4087 24 6C24 7.5913 23.3679 9.11742 22.2426 10.2426C21.1174 11.3679 19.5913 12 18 12C16.4087 12 14.8826 11.3679 13.7574 10.2426C12.6321 9.11742 12 7.5913 12 6C12 4.4087 12.6321 2.88258 13.7574 1.75736C14.8826 0.632141 16.4087 0 18 0ZM17.2526 7.18371L15.9197 5.85C15.8719 5.80222 15.8152 5.76431 15.7528 5.73845C15.6903 5.71259 15.6234 5.69929 15.5559 5.69929C15.4883 5.69929 15.4214 5.71259 15.3589 5.73845C15.2965 5.76431 15.2398 5.80222 15.192 5.85C15.0955 5.9465 15.0413 6.07738 15.0413 6.21386C15.0413 6.35033 15.0955 6.48121 15.192 6.57771L16.8891 8.27486C16.9368 8.32288 16.9935 8.361 17.0559 8.38701C17.1184 8.41302 17.1853 8.42642 17.253 8.42642C17.3207 8.42642 17.3876 8.41302 17.4501 8.38701C17.5125 8.361 17.5692 8.32288 17.6169 8.27486L21.1311 4.75971C21.1796 4.71213 21.2181 4.65543 21.2445 4.59288C21.2709 4.53034 21.2846 4.46318 21.285 4.3953C21.2853 4.32741 21.2721 4.26013 21.2463 4.19734C21.2205 4.13455 21.1825 4.0775 21.1345 4.02946C21.0866 3.98143 21.0296 3.94337 20.9668 3.91748C20.904 3.89159 20.8368 3.87839 20.7689 3.87862C20.701 3.87886 20.6338 3.89253 20.5712 3.91886C20.5087 3.94518 20.4519 3.98364 20.4043 4.032L17.2526 7.18371Z"
            fill="#4DBF03" />
    </g>
    <defs>
        <clipPath id="clip0_176_12035">
            <rect width="12" height="12" fill="white" transform="translate(12)" />
        </clipPath>
    </defs>
</svg>