<svg width="24" height="24" viewBox="0 0 24 24" fill="none" xmlns="http://www.w3.org/2000/svg">
<path d="M8 7H16M8 11H12M13 21.5V21C13 18.172 13 16.757 13.879 15.879C14.757 15 16.172 15 19 15H19.5M20 13.343V10C20 6.229 20 4.343 18.828 3.172C17.656 2.001 15.771 2 12 2C8.229 2 6.343 2 5.172 3.172C4.001 4.344 4 6.229 4 10V14.544C4 17.789 4 19.412 4.886 20.511C5.06494 20.7329 5.26709 20.9351 5.489 21.114C6.59 22 8.211 22 11.456 22C12.161 22 12.514 22 12.837 21.886C12.9037 21.862 12.9693 21.8347 13.034 21.804C13.344 21.656 13.593 21.407 14.092 20.908L18.828 16.172C19.407 15.594 19.695 15.305 19.848 14.937C20 14.569 20 14.161 20 13.343Z" stroke="#F9F8F8" stroke-linecap="round" stroke-linejoin="round"/>
</svg>
