<svg width="24" height="24" viewBox="0 0 24 24" fill="none" xmlns="http://www.w3.org/2000/svg">
<path d="M5.25 5.5H18.75C19.1111 5.5 19.4691 5.57078 19.8027 5.70898C20.1363 5.84718 20.439 6.05035 20.6943 6.30566C20.9497 6.56098 21.1528 6.86369 21.291 7.19727C21.4292 7.53091 21.5 7.88886 21.5 8.25V15.75C21.5 16.1111 21.4292 16.4691 21.291 16.8027C21.1528 17.1363 20.9497 17.439 20.6943 17.6943C20.439 17.9497 20.1363 18.1528 19.8027 18.291C19.4691 18.4292 19.1111 18.5 18.75 18.5H5.25C4.52065 18.5 3.82139 18.2101 3.30566 17.6943C2.78994 17.1786 2.5 16.4793 2.5 15.75V8.25C2.5 7.52065 2.78994 6.82139 3.30566 6.30566C3.82139 5.78994 4.52065 5.5 5.25 5.5ZM3 15.75C3 16.9921 4.00786 18 5.25 18H18.75C19.3467 18 19.9189 17.7628 20.3408 17.3408C20.7628 16.9189 21 16.3467 21 15.75V10.5H3V15.75ZM15.75 15H18.25C18.3163 15 18.3799 15.0264 18.4268 15.0732C18.4736 15.1201 18.5 15.1837 18.5 15.25C18.5 15.3163 18.4736 15.3799 18.4268 15.4268C18.3799 15.4736 18.3163 15.5 18.25 15.5H15.75C15.6837 15.5 15.6201 15.4736 15.5732 15.4268C15.5264 15.3799 15.5 15.3163 15.5 15.25C15.5 15.1837 15.5264 15.1201 15.5732 15.0732C15.6201 15.0264 15.6837 15 15.75 15ZM5.25 6C4.65326 6 4.08114 6.23722 3.65918 6.65918C3.23722 7.08114 3 7.65326 3 8.25V10H21V8.25C21 7.65326 20.7628 7.08114 20.3408 6.65918C19.9189 6.23722 19.3467 6 18.75 6H5.25Z" fill="#FFB939" stroke="#F9F8F8"/>
<g clip-path="url(#clip0_255_37230)">
<circle cx="18" cy="6" r="6" fill="#F9F8F8"/>
<path d="M18 0C19.5913 0 21.1174 0.632141 22.2426 1.75736C23.3679 2.88258 24 4.4087 24 6C24 7.5913 23.3679 9.11742 22.2426 10.2426C21.1174 11.3679 19.5913 12 18 12C16.4087 12 14.8826 11.3679 13.7574 10.2426C12.6321 9.11742 12 7.5913 12 6C12 4.4087 12.6321 2.88258 13.7574 1.75736C14.8826 0.632141 16.4087 0 18 0ZM17.2526 7.18371L15.9197 5.85C15.8719 5.80222 15.8152 5.76431 15.7528 5.73845C15.6903 5.71259 15.6234 5.69929 15.5559 5.69929C15.4883 5.69929 15.4214 5.71259 15.3589 5.73845C15.2965 5.76431 15.2398 5.80222 15.192 5.85C15.0955 5.9465 15.0413 6.07738 15.0413 6.21386C15.0413 6.35033 15.0955 6.48121 15.192 6.57771L16.8891 8.27486C16.9368 8.32288 16.9935 8.361 17.0559 8.38701C17.1184 8.41302 17.1853 8.42642 17.253 8.42642C17.3207 8.42642 17.3876 8.41302 17.4501 8.38701C17.5125 8.361 17.5692 8.32288 17.6169 8.27486L21.1311 4.75971C21.1796 4.71213 21.2181 4.65543 21.2445 4.59288C21.2709 4.53034 21.2846 4.46318 21.285 4.3953C21.2853 4.32741 21.2721 4.26013 21.2463 4.19734C21.2205 4.13455 21.1825 4.0775 21.1345 4.02946C21.0866 3.98143 21.0296 3.94337 20.9668 3.91748C20.904 3.89159 20.8368 3.87839 20.7689 3.87862C20.701 3.87886 20.6338 3.89253 20.5712 3.91886C20.5087 3.94518 20.4519 3.98364 20.4043 4.032L17.2526 7.18371Z" fill="#4DBF03"/>
</g>
<defs>
<clipPath id="clip0_255_37230">
<rect width="12" height="12" fill="white" transform="translate(12)"/>
</clipPath>
</defs>
</svg>
