<svg width="48" height="48" viewBox="0 0 48 48" fill="none" xmlns="http://www.w3.org/2000/svg">
<path d="M19.3955 31.25C19.3756 31.2464 19.3563 31.241 19.3369 31.2363C19.3564 31.2409 19.3757 31.2464 19.3955 31.25ZM18.5049 30.2656C18.5104 30.3295 18.5216 30.392 18.5371 30.4531C18.5219 30.3946 18.5105 30.334 18.5049 30.2705V30.2656ZM26.5 16.5V17.2695H21.5V16.5H26.5ZM28.499 31.2637C28.7591 31.2351 28.9819 31.1099 29.1602 30.9326C29.3652 30.7287 29.5003 30.4654 29.5 30.1553L29.4951 30.2773C29.4717 30.5538 29.3663 30.7719 29.1836 30.9551C28.9755 31.1634 28.7214 31.27 28.3848 31.2695L28.499 31.2637Z" fill="#F9F8F8" stroke="#F9F8F8"/>
</svg>
