<svg width="24" height="24" viewBox="0 0 24 24" fill="none" xmlns="http://www.w3.org/2000/svg">
<path d="M17 20C18.1046 20 19 19.1046 19 18C19 16.8954 18.1046 16 17 16C15.8954 16 15 16.8954 15 18C15 19.1046 15.8954 20 17 20Z" stroke="#F9F8F8"/>
<path d="M7 20C8.10457 20 9 19.1046 9 18C9 16.8954 8.10457 16 7 16C5.89543 16 5 16.8954 5 18C5 19.1046 5.89543 20 7 20Z" stroke="#F9F8F8"/>
<path d="M5 17.972C3.903 17.918 3.22 17.755 2.732 17.268C2.244 16.781 2.082 16.097 2.028 15M9 18H15M19 17.972C20.097 17.918 20.78 17.755 21.268 17.268C22 16.535 22 15.357 22 13V11H17.3C16.555 11 16.183 11 15.882 10.902C15.5818 10.8045 15.309 10.6373 15.0859 10.4141C14.8627 10.191 14.6955 9.91815 14.598 9.618C14.5 9.317 14.5 8.945 14.5 8.2C14.5 7.083 14.5 6.525 14.353 6.073C14.2067 5.62277 13.9559 5.21356 13.6212 4.87882C13.2864 4.54408 12.8772 4.2933 12.427 4.147C11.975 4 11.417 4 10.3 4H2M2 8H8M2 11H6" stroke="#F9F8F8" stroke-linecap="round" stroke-linejoin="round"/>
<path d="M14.5 6H16.321C17.777 6 18.504 6 19.096 6.354C19.689 6.707 20.034 7.348 20.724 8.63L22 11" stroke="#F9F8F8" stroke-linecap="round" stroke-linejoin="round"/>
<g clip-path="url(#clip0_255_36618)">
<circle cx="18" cy="6" r="6" fill="#F9F8F8"/>
<path d="M18 0C19.5913 0 21.1174 0.632141 22.2426 1.75736C23.3679 2.88258 24 4.4087 24 6C24 7.5913 23.3679 9.11742 22.2426 10.2426C21.1174 11.3679 19.5913 12 18 12C16.4087 12 14.8826 11.3679 13.7574 10.2426C12.6321 9.11742 12 7.5913 12 6C12 4.4087 12.6321 2.88258 13.7574 1.75736C14.8826 0.632141 16.4087 0 18 0ZM17.2526 7.18371L15.9197 5.85C15.8719 5.80222 15.8152 5.76431 15.7528 5.73845C15.6903 5.71259 15.6234 5.69929 15.5559 5.69929C15.4883 5.69929 15.4214 5.71259 15.3589 5.73845C15.2965 5.76431 15.2398 5.80222 15.192 5.85C15.0955 5.9465 15.0413 6.07738 15.0413 6.21386C15.0413 6.35033 15.0955 6.48121 15.192 6.57771L16.8891 8.27486C16.9368 8.32288 16.9935 8.361 17.0559 8.38701C17.1184 8.41302 17.1853 8.42642 17.253 8.42642C17.3207 8.42642 17.3876 8.41302 17.4501 8.38701C17.5125 8.361 17.5692 8.32288 17.6169 8.27486L21.1311 4.75971C21.1796 4.71213 21.2181 4.65543 21.2445 4.59288C21.2709 4.53034 21.2846 4.46318 21.285 4.3953C21.2853 4.32741 21.2721 4.26013 21.2463 4.19734C21.2205 4.13455 21.1825 4.0775 21.1345 4.02946C21.0866 3.98143 21.0296 3.94337 20.9668 3.91748C20.904 3.89159 20.8368 3.87839 20.7689 3.87862C20.701 3.87886 20.6338 3.89253 20.5712 3.91886C20.5087 3.94518 20.4519 3.98364 20.4043 4.032L17.2526 7.18371Z" fill="#4DBF03"/>
</g>
<defs>
<clipPath id="clip0_255_36618">
<rect width="12" height="12" fill="white" transform="translate(12)"/>
</clipPath>
</defs>
</svg>
