<svg width="24" height="24" viewBox="0 0 24 24" fill="none" xmlns="http://www.w3.org/2000/svg">
<mask id="path-1-inside-1_2001_1317" fill="white">
<path d="M21.5 9.97266C20.1039 9.97266 18.9727 11.1039 18.9727 12.5C18.9727 13.8087 19.9667 14.885 21.2412 15.0146L21.5 15.0273V19H2V6H21.5V9.97266Z"/>
</mask>
<path d="M21.5 9.97266V10.9727H22.5V9.97266H21.5ZM21.2412 15.0146L21.14 16.0095L21.1661 16.0122L21.1922 16.0134L21.2412 15.0146ZM21.5 15.0273H22.5V14.0752L21.549 14.0285L21.5 15.0273ZM21.5 19V20H22.5V19H21.5ZM2 19H1V20H2V19ZM2 6V5H1V6H2ZM21.5 6H22.5V5H21.5V6ZM21.5 9.97266V8.97266C19.5517 8.97266 17.9727 10.5517 17.9727 12.5H18.9727H19.9727C19.9727 11.6562 20.6562 10.9727 21.5 10.9727V9.97266ZM18.9727 12.5H17.9727C17.9727 14.3268 19.3601 15.8285 21.14 16.0095L21.2412 15.0146L21.3424 14.0198C20.5734 13.9416 19.9727 13.2906 19.9727 12.5H18.9727ZM21.2412 15.0146L21.1922 16.0134L21.451 16.0261L21.5 15.0273L21.549 14.0285L21.2902 14.0158L21.2412 15.0146ZM21.5 15.0273H20.5V19H21.5H22.5V15.0273H21.5ZM21.5 19V18H2V19V20H21.5V19ZM2 19H3V6H2H1V19H2ZM2 6V7H21.5V6V5H2V6ZM21.5 6H20.5V9.97266H21.5H22.5V6H21.5Z" fill="#F9F8F8" mask="url(#path-1-inside-1_2001_1317)"/>
<line x1="7.5" y1="7" x2="7.5" y2="19" stroke="#F9F8F8" stroke-dasharray="1.5 1.5"/>
</svg>
